<svg xmlns="http://www.w3.org/2000/svg" viewBox="0 0 400 400" fill="none">
<circle cx="200" cy="112" r="16.5" fill="#E6242B" transform="rotate(0 200 200)" />
<circle cx="200" cy="112" r="16.5" fill="#E6242B" transform="rotate(45 200 200)" />
<circle cx="200" cy="112" r="16.5" fill="#E6242B" transform="rotate(90 200 200)" />
<circle cx="200" cy="112" r="16.5" fill="#E6242B" transform="rotate(135 200 200)" />
<circle cx="200" cy="112" r="16.5" fill="#E6242B" transform="rotate(180 200 200)" />
<circle cx="200" cy="112" r="16.5" fill="#E6242B" transform="rotate(225 200 200)" />
<circle cx="200" cy="112" r="16.5" fill="#E6242B" transform="rotate(270 200 200)" />
<circle cx="200" cy="112" r="16.5" fill="#E6242B" transform="rotate(315 200 200)" />
<path d="M 154 24 L 246 24 A 46 46 0 0 1 154 24 Z" fill="#E6242B" transform="rotate(0 200 200)" />
<path d="M 154 24 L 246 24 A 46 46 0 0 1 154 24 Z" fill="#E6242B" transform="rotate(45 200 200)" />
<path d="M 154 24 L 246 24 A 46 46 0 0 1 154 24 Z" fill="#E6242B" transform="rotate(90 200 200)" />
<path d="M 154 24 L 246 24 A 46 46 0 0 1 154 24 Z" fill="#E6242B" transform="rotate(135 200 200)" />
<path d="M 154 24 L 246 24 A 46 46 0 0 1 154 24 Z" fill="#E6242B" transform="rotate(180 200 200)" />
<path d="M 154 24 L 246 24 A 46 46 0 0 1 154 24 Z" fill="#E6242B" transform="rotate(225 200 200)" />
<path d="M 154 24 L 246 24 A 46 46 0 0 1 154 24 Z" fill="#E6242B" transform="rotate(270 200 200)" />
<path d="M 154 24 L 246 24 A 46 46 0 0 1 154 24 Z" fill="#E6242B" transform="rotate(315 200 200)" />
</svg>